<svg width="465" height="83" viewBox="0 0 465 83" fill="none" xmlns="http://www.w3.org/2000/svg"><path d="M0 41.17C0 63.81.14 82.475.277 82.648c.416.442 6.656.442 6.656.02 0-.154.232-.289.463-.289.323 0 .462-13.865.462-41.19V0H0v41.17z" fill="#D4D4D4"/><path d="M12.018 41.478v41.477h3.698V0h-3.698v41.478z" fill="#D4D4D4"/><path d="M24.96 41.17c0 22.64.14 41.305.278 41.478.37.403 2.496.403 2.496.02 0-.154.23-.289.462-.289.324 0 .462-13.865.462-41.19V0H24.96v41.17z" fill="#D4D4D4"/><path d="M45.76 41.478v41.477h5.732c5.547 0 5.732-.019 6.01-.441.138-.23.276-18.896.276-41.478V0H45.76v41.478z" fill="#D4D4D4"/><path d="M61.707 41.132c0 38.943.047 41.17.832 41.478.554.25 1.525.345 3.697.345 2.681 0 3.005-.038 3.56-.499.554-.403.646-7.162.646-41.478L70.49 0h-8.784v41.132z" fill="#D4D4D4"/><path d="M82.739 41.19c-.001 27.325.137 41.19.46 41.19.278 0 .463.134.463.287 0 .384 2.126.384 2.496-.019.138-.173.276-18.838.276-41.478V0h-3.698v41.19z" fill="#D4D4D4"/><path d="M91.52 41.17c0 22.64.14 41.305.278 41.478.37.403 2.496.403 2.496.02 0-.154.231-.289.463-.289.323 0 .462-13.865.462-41.19V0h-3.7v41.17z" fill="#D4D4D4"/><path d="M99.379 41.478v41.477h7.858V0h-7.86v41.478z" fill="#D4D4D4"/><path d="M116.48 41.478v41.477h1.203c2.68 0 2.496 3.073 2.496-41.746V-.001h-3.7v41.478z" fill="#D4D4D4"/><path d="M137.28 41.478v41.477h1.388c.924 0 1.387-.096 1.387-.288 0-.153.23-.288.462-.288.323 0 .462-13.865.462-41.19V0h-3.7v41.478z" fill="#D4D4D4"/><path d="M145.14 41.478v41.477h3.698V0h-3.7v41.478z" fill="#D4D4D4"/><path d="M158.082 41.478v41.477h15.714V0H158.08v41.478z" fill="#D4D4D4"/><path d="M183.042 41.478v41.477h3.698V0h-3.698v41.478z" fill="#D4D4D4"/><path d="M190.9 41.19c0 27.325.138 41.19.462 41.19.277 0 .462.134.462.287 0 .423 6.24.423 6.656-.019.14-.173.277-18.838.277-41.478V0H190.9v41.19z" fill="#D4D4D4"/><path d="M215.86 41.19c0 27.325.14 41.19.462 41.19.277 0 .462.134.462.287 0 .384 2.127.384 2.496-.019.14-.173.278-18.838.278-41.478V0h-3.698v41.19z" fill="#D4D4D4"/><path d="M228.802.806V82.61c0 .269.416.345 1.85.345h1.848V0h-3.698v.806z" fill="#D4D4D4"/><path d="M241.282 41.036c0 22.582.14 41.247.278 41.478.277.403.554.441 3.466.441 2.543 0 3.19-.057 3.19-.288 0-.153.23-.288.462-.288.323 0 .462-13.865.462-41.19V0h-7.858v41.036z" fill="#D4D4D4"/><path d="M266.243 41.17c0 22.64.138 41.305.277 41.478.37.403 1.85.384 2.866-.038.74-.308.786-2.535.786-41.478V0h-3.929v41.17z" fill="#D4D4D4"/><path d="M274.1 41.036c0 22.582.14 41.247.278 41.478.277.403.554.441 3.93.441h3.65V0H274.1v41.036z" fill="#D4D4D4"/><path d="M287.043 41.036c0 22.582.14 41.247.277 41.478.278.403.555.441 3.467.441 2.542 0 3.19-.057 3.19-.288 0-.153.23-.288.46-.288.325 0 .464-13.865.464-41.19V0h-7.858v41.036z" fill="#D4D4D4"/><path d="M299.06 41.478v41.477h7.858c6.795 0 7.858-.038 7.858-.307 0-.154.23-.23.462-.173.324.077.463-13.691.463-41.17V0h-16.64v41.478z" fill="#D4D4D4"/><path d="M319.86 41.036c0 22.582.14 41.247.278 41.478.23.345.647.441 1.803.441 1.157 0 1.573-.096 1.804-.441.138-.23.277-18.896.277-41.478V0h-4.16v41.036z" fill="#D4D4D4"/><path d="M332.803 41.17c0 22.64.14 41.305.277 41.478.463.5 2.22.365 3.005-.23.6-.461.693-5.3.6-41.228-.045-22.39-.092-40.825-.138-40.96-.046-.134-.74-.23-1.895-.23h-1.85v41.17z" fill="#D4D4D4"/><path d="M344.82 41.478v41.477h7.86c6.655 0 7.857-.038 7.857-.288 0-.153.23-.288.462-.288.323 0 .46-13.865.46-41.19V0h-16.64v41.478z" fill="#D4D4D4"/><path d="M365.62 41.478v41.477h7.86V0h-7.86v41.478z" fill="#D4D4D4"/><path d="M382.724 41.478v41.477h11.555V0h-11.556v41.478z" fill="#D4D4D4"/><path d="M399.364 41.17c0 22.64.138 41.305.277 41.478.37.403 1.85.384 2.867-.038.74-.308.786-2.516.74-41.228-.047-22.506-.093-41.017-.14-41.152-.045-.134-.74-.23-1.894-.23h-1.85v41.17z" fill="#D4D4D4"/><path d="M411.382 41.478v41.477h7.858V0h-7.858v41.478z" fill="#D4D4D4"/><path d="M432.182 41.478v41.477h5.732c5.546 0 5.73-.019 6.01-.441.137-.23.276-18.896.276-41.478V0h-12.018v41.478z" fill="#D4D4D4"/><path d="M449.284 41.478v41.477h3.698V0h-3.698v41.478z" fill="#D4D4D4"/><path d="M457.142 41.19c0 27.325.14 41.19.462 41.19.278 0 .463.134.463.287 0 .423 6.24.423 6.656-.019.138-.173.277-18.838.277-41.478V0h-7.858v41.19z" fill="#D4D4D4"/></svg>